<svg id="Capa_1" enable-background="new 0 0 512 512" height="512" viewBox="0 0 512 512" width="512" xmlns="http://www.w3.org/2000/svg"><g><circle cx="75" cy="76" r="45"/><path d="m452 31h60v90h-60z"/><path d="m452 151h60v90h-60z"/><path d="m392 271h120v90h-120z"/><path d="m242 421h-32v-90h32v30h120v-90h-120v30h-32v-90h32v30h180v-90h-180v30h-32v-90h32v30h180v-90h-180v30h-62v180h-30v-45c0-41.353-33.647-75-75-75s-75 33.647-75 75v105h30v180h90v-180h30v-30h30v180h62v30h180v-90h-180z"/><path d="m452 391h60v90h-60z"/></g></svg>